<svg xmlns="http://www.w3.org/2000/svg" viewBox="0 0 680 300" font-family="sans-serif"><line x1="56" x2="656" y1="260.0" y2="260.0" stroke="#ddd"/><text x="48" y="264.0" font-size="11" text-anchor="end" fill="#777">0%</text><line x1="56" x2="656" y1="199.0" y2="199.0" stroke="#ddd"/><text x="48" y="203.0" font-size="11" text-anchor="end" fill="#777">25%</text><line x1="56" x2="656" y1="138.0" y2="138.0" stroke="#ddd"/><text x="48" y="142.0" font-size="11" text-anchor="end" fill="#777">50%</text><line x1="56" x2="656" y1="77.0" y2="77.0" stroke="#ddd"/><text x="48" y="81.0" font-size="11" text-anchor="end" fill="#777">75%</text><line x1="56" x2="656" y1="16.0" y2="16.0" stroke="#ddd"/><text x="48" y="20.0" font-size="11" text-anchor="end" fill="#777">100%</text><text x="56.0" y="282" font-size="11" text-anchor="middle" fill="#777">T0</text><text x="137.1" y="282" font-size="11" text-anchor="middle" fill="#777">T10</text><text x="218.2" y="282" font-size="11" text-anchor="middle" fill="#777">T20</text><text x="299.2" y="282" font-size="11" text-anchor="middle" fill="#777">T30</text><text x="380.3" y="282" font-size="11" text-anchor="middle" fill="#777">T40</text><text x="461.4" y="282" font-size="11" text-anchor="middle" fill="#777">T50</text><text x="542.5" y="282" font-size="11" text-anchor="middle" fill="#777">T60</text><text x="623.6" y="282" font-size="11" text-anchor="middle" fill="#777">T70</text><polyline points="56.0,16.0 56.0,16.0 242.5,16.0 242.5,40.4 250.6,40.4 250.6,138.0 258.7,138.0 258.7,162.4 283.0,162.4 283.0,211.2 291.1,211.2 291.1,235.6 299.2,235.6 299.2,260.0 656.0,260.0" fill="none" stroke="#9b1c2a" stroke-width="2.4"/><text x="652" y="32" font-size="12" text-anchor="end" fill="#9b1c2a">eq4b</text><polyline points="56.0,16.0 56.0,16.0 615.5,16.0 615.5,16.0 656.0,16.0" fill="none" stroke="#276b91" stroke-width="2.4"/><text x="652" y="48" font-size="12" text-anchor="end" fill="#276b91">p2s1_ref</text></svg>