<svg xmlns="http://www.w3.org/2000/svg" viewBox="0 0 680 300" font-family="sans-serif"><line x1="56" x2="656" y1="260.0" y2="260.0" stroke="#ddd"/><text x="48" y="264.0" font-size="11" text-anchor="end" fill="#777">0%</text><line x1="56" x2="656" y1="199.0" y2="199.0" stroke="#ddd"/><text x="48" y="203.0" font-size="11" text-anchor="end" fill="#777">25%</text><line x1="56" x2="656" y1="138.0" y2="138.0" stroke="#ddd"/><text x="48" y="142.0" font-size="11" text-anchor="end" fill="#777">50%</text><line x1="56" x2="656" y1="77.0" y2="77.0" stroke="#ddd"/><text x="48" y="81.0" font-size="11" text-anchor="end" fill="#777">75%</text><line x1="56" x2="656" y1="16.0" y2="16.0" stroke="#ddd"/><text x="48" y="20.0" font-size="11" text-anchor="end" fill="#777">100%</text><text x="56.0" y="282" font-size="11" text-anchor="middle" fill="#777">T0</text><text x="141.7" y="282" font-size="11" text-anchor="middle" fill="#777">T5</text><text x="227.4" y="282" font-size="11" text-anchor="middle" fill="#777">T10</text><text x="313.1" y="282" font-size="11" text-anchor="middle" fill="#777">T15</text><text x="398.9" y="282" font-size="11" text-anchor="middle" fill="#777">T20</text><text x="484.6" y="282" font-size="11" text-anchor="middle" fill="#777">T25</text><text x="570.3" y="282" font-size="11" text-anchor="middle" fill="#777">T30</text><text x="656.0" y="282" font-size="11" text-anchor="middle" fill="#777">T35</text><polyline points="56.0,16.0 56.0,16.0 450.3,16.0 450.3,40.4 467.4,40.4 467.4,138.0 484.6,138.0 484.6,162.4 536.0,162.4 536.0,211.2 553.1,211.2 553.1,235.6 570.3,235.6 570.3,260.0 656.0,260.0" fill="none" stroke="#9b1c2a" stroke-width="2.4"/><text x="652" y="32" font-size="12" text-anchor="end" fill="#9b1c2a">eq4b</text></svg>